<svg data-v-423bf9ae="" xmlns="http://www.w3.org/2000/svg" viewBox="0 0 415.0566884793543 163" class="iconAbove"><!----><!----><!----><g data-v-423bf9ae="" id="cf17e3ad-a1b0-417f-849d-c67fca8422a4" fill="white" transform="matrix(4.535147549208299,0,0,4.535147549208299,0.7709684576190341,89.43990520833796)"><path d="M7.10 13.15L8.71 13.15L5.02 3.82L3.51 3.82L-0.17 13.15L1.43 13.15L2.32 10.75L6.21 10.73ZM2.76 9.57L4.27 5.45L5.78 9.57ZM11.90 4.20C12.09 4.20 12.34 4.27 12.56 4.43L13.17 3.40C12.70 3.12 12.31 2.99 11.75 2.99C10.57 2.99 9.74 3.81 9.74 5.40L9.74 6.53L8.87 6.53L8.87 7.67L9.74 7.67L9.74 13.15L11.14 13.15L11.14 7.67L12.53 7.67L12.53 6.53L11.14 6.53L11.14 5.29C11.14 4.65 11.33 4.20 11.90 4.20ZM16.58 12.16C15.14 12.16 14.74 12.07 14.74 11.62C14.74 11.40 14.95 11.20 15.22 11.07C15.59 11.20 15.98 11.26 16.42 11.26C18.07 11.26 19.28 10.31 19.28 8.79C19.28 8.20 19.07 7.69 18.74 7.28C18.90 6.99 19.35 6.88 19.79 7L19.99 6.01C19.38 5.86 18.43 5.92 18.00 6.71C17.56 6.47 17.02 6.36 16.42 6.36C14.74 6.36 13.56 7.32 13.56 8.79C13.56 9.52 13.84 10.12 14.32 10.54C13.88 10.82 13.53 11.26 13.53 11.84C13.53 12.22 13.74 12.60 14.23 12.88C13.52 13.17 13.10 13.75 13.10 14.44C13.10 15.72 14.52 16.22 16.46 16.22C18.51 16.22 19.83 15.53 19.83 14.19C19.83 12.67 18.23 12.16 16.58 12.16ZM16.42 7.44C17.32 7.44 17.84 8.05 17.84 8.79C17.84 9.55 17.31 10.18 16.42 10.18C15.53 10.18 15.01 9.55 15.01 8.79C15.01 8.05 15.52 7.44 16.42 7.44ZM16.45 15.17C15.41 15.17 14.60 14.98 14.60 14.20C14.60 13.78 14.83 13.40 15.37 13.21C15.63 13.26 15.92 13.27 16.25 13.27C17.50 13.27 18.32 13.45 18.32 14.20C18.32 14.90 17.59 15.17 16.45 15.17ZM24.75 6.36C23.80 6.36 23.10 6.75 22.69 7.32L22.69 3.24L21.28 3.24L21.28 13.15L22.69 13.15L22.69 9.42C22.69 8.02 23.55 7.57 24.35 7.57C25.38 7.57 25.81 8.30 25.81 9.38L25.81 13.15L27.23 13.15L27.23 9.06C27.23 7 25.90 6.36 24.75 6.36ZM30.90 13.34C31.84 13.34 32.71 12.94 33.16 12.31L33.38 13.15L34.58 13.15L34.58 9.19C34.58 7.31 33.60 6.36 31.65 6.36C30.67 6.36 29.85 6.61 29.23 7.10L29.85 8.08C30.29 7.70 30.86 7.51 31.50 7.51C32.55 7.51 33.16 8.01 33.16 8.90L33.16 9.45L32.99 9.39C30.11 8.31 28.54 9.79 28.54 11.21C28.54 12.45 29.59 13.34 30.90 13.34ZM31.33 12.25C30.49 12.25 30.03 11.72 30.03 11.11C30.03 10.34 30.92 9.57 32.97 10.30L33.16 10.35L33.16 10.54C33.16 11.62 32.29 12.25 31.33 12.25ZM39.71 6.36C38.78 6.36 38.06 6.74 37.67 7.32L37.49 6.53L36.25 6.53L36.25 13.15L37.67 13.15L37.67 9.11C37.79 7.95 38.57 7.57 39.32 7.57C40.34 7.57 40.78 8.30 40.78 9.38L40.78 13.15L42.19 13.15L42.19 9.06C42.19 7 40.86 6.36 39.71 6.36ZM48.48 5.26C48.99 5.26 49.39 4.86 49.39 4.36C49.39 3.86 48.99 3.46 48.48 3.46C47.96 3.46 47.56 3.86 47.56 4.36C47.56 4.86 47.96 5.26 48.48 5.26ZM49.17 6.53L47.76 6.53L47.76 13.90C47.76 14.86 47.28 15.01 46.99 15.01C46.86 15.01 46.71 14.98 46.67 14.96L46.56 16.16C46.65 16.19 46.87 16.22 47.09 16.22C47.85 16.22 49.17 15.98 49.17 13.77ZM57.39 9.70C57.39 7.73 56.06 6.36 54.13 6.36C52.14 6.36 50.72 7.89 50.72 9.84C50.72 11.80 52.12 13.31 54.29 13.31C55.45 13.31 56.41 12.92 57.01 12.25L56.03 11.46C55.61 11.94 55.04 12.19 54.28 12.19C53.04 12.19 52.31 11.33 52.21 10.15L57.39 10.15ZM54.13 7.50C55.17 7.50 55.84 8.12 55.99 9.17L52.27 9.17C52.47 8.17 53.16 7.50 54.13 7.50ZM66.85 6.53L65.25 11.33L63.77 6.53L62.59 6.53L61.12 11.33L59.50 6.53L58.00 6.53L60.51 13.15L61.69 13.15L63.19 8.17L64.68 13.15L65.86 13.15L68.37 6.53ZM75.64 9.70C75.64 7.73 74.32 6.36 72.39 6.36C70.39 6.36 68.98 7.89 68.98 9.84C68.98 11.80 70.38 13.31 72.55 13.31C73.70 13.31 74.67 12.92 75.26 12.25L74.29 11.46C73.86 11.94 73.30 12.19 72.54 12.19C71.30 12.19 70.57 11.33 70.47 10.15L75.64 10.15ZM72.39 7.50C73.43 7.50 74.10 8.12 74.24 9.17L70.53 9.17C70.73 8.17 71.41 7.50 72.39 7.50ZM77.09 13.15L78.50 13.15L78.50 3.24L77.09 3.24ZM83.40 6.36C82.61 6.36 82.09 6.74 81.71 7.41L81.54 6.53L80.31 6.53L80.31 13.15L81.73 13.15L81.73 9.70C81.73 8.62 82.29 7.66 83.33 7.66C83.56 7.66 83.78 7.70 83.97 7.79L84.39 6.58C84.22 6.47 83.84 6.36 83.40 6.36ZM89.83 6.53L87.88 11.49L85.91 6.53L84.42 6.53L87.19 13.20L86.76 14.32C86.55 14.82 86.29 15.01 85.98 15.01C85.79 15.01 85.59 14.93 85.50 14.88L85.25 16.06C85.40 16.13 85.71 16.22 86.06 16.22C86.67 16.22 87.41 15.98 87.86 14.86L91.35 6.53Z"></path></g><!----><g data-v-423bf9ae="" id="2368f02b-9242-4b7d-ac23-1f464fb8da71" transform="matrix(1.4285714285714286,0,0,1.4285714285714286,137.07142857142856,-25.92857142857143)" stroke="none" fill="white"><path d="M60 31.5c10.217 0 18.5 8.282 18.5 18.499 0 15.741-12.76 28.5-28.5 28.5C34.26 78.5 21.5 65.74 21.5 50c0-15.74 12.76-28.5 28.5-28.5a1.5 1.5 0 1 0 0-3c-17.397 0-31.5 14.103-31.5 31.5 0 17.396 14.103 31.5 31.5 31.5S81.5 67.396 81.5 50c0-11.873-9.626-21.5-21.5-21.5a1.5 1.5 0 0 0 0 3z"></path></g><!----></svg>