<svg data-v-423bf9ae="" xmlns="http://www.w3.org/2000/svg" viewBox="0 0 357 90" class="iconLeft"><!----><!----><!----><g data-v-423bf9ae="" id="2fb593fd-7e81-4fce-b764-2675b361f0cf" fill="white" transform="matrix(4.252303147030484,0,0,4.252303147030484,104.642093145442,8.281359444768185)"><path d="M5.07 4.61Q6.03 4.61 6.80 5.03Q7.57 5.45 8.01 6.25Q8.44 7.06 8.44 8.19L8.44 8.19L8.44 11.63Q8.44 11.94 8.24 12.14Q8.04 12.35 7.73 12.35L7.73 12.35Q7.42 12.35 7.22 12.14Q7.01 11.94 7.01 11.63L7.01 11.63L7.01 8.19Q7.01 7.06 6.41 6.47Q5.80 5.89 4.79 5.89L4.79 5.89Q4.20 5.89 3.72 6.13Q3.23 6.37 2.96 6.78Q2.69 7.18 2.69 7.69L2.69 7.69L2.69 11.63Q2.69 11.94 2.49 12.14Q2.30 12.35 1.97 12.35L1.97 12.35Q1.67 12.35 1.46 12.14Q1.26 11.94 1.26 11.63L1.26 11.63L1.26 5.39Q1.26 5.07 1.46 4.87Q1.67 4.68 1.97 4.68L1.97 4.68Q2.30 4.68 2.49 4.87Q2.69 5.07 2.69 5.39L2.69 5.39L2.69 5.54Q3.14 5.10 3.75 4.85Q4.37 4.61 5.07 4.61L5.07 4.61ZM14.28 4.62Q15.36 4.62 16.23 5.13Q17.11 5.64 17.62 6.53Q18.13 7.42 18.13 8.51L18.13 8.51L18.13 11.63Q18.13 11.94 17.93 12.14Q17.72 12.35 17.42 12.35L17.42 12.35Q17.11 12.35 16.91 12.14Q16.70 11.94 16.70 11.63L16.70 11.63L16.70 11.12Q16.21 11.72 15.51 12.05Q14.81 12.39 14 12.39L14 12.39Q12.99 12.39 12.17 11.89Q11.35 11.38 10.88 10.49Q10.42 9.60 10.42 8.51L10.42 8.51Q10.42 7.42 10.92 6.53Q11.42 5.64 12.31 5.13Q13.20 4.62 14.28 4.62L14.28 4.62ZM14.28 11.13Q14.98 11.13 15.55 10.79Q16.11 10.44 16.44 9.85Q16.76 9.25 16.76 8.51L16.76 8.51Q16.76 7.77 16.44 7.17Q16.11 6.57 15.55 6.22Q14.98 5.88 14.28 5.88L14.28 5.88Q13.58 5.88 13.01 6.22Q12.45 6.57 12.12 7.17Q11.79 7.77 11.79 8.51L11.79 8.51Q11.79 9.25 12.12 9.85Q12.45 10.44 13.01 10.79Q13.58 11.13 14.28 11.13L14.28 11.13ZM23.73 4.62Q24.84 4.62 25.71 5.12Q26.59 5.61 27.08 6.50Q27.58 7.38 27.58 8.51L27.58 8.51L27.58 11.54Q27.58 12.64 27.09 13.55Q26.60 14.46 25.71 14.99Q24.82 15.51 23.70 15.51L23.70 15.51Q22.69 15.51 21.83 15.11Q20.96 14.71 20.37 13.97L20.37 13.97Q20.22 13.78 20.22 13.58L20.22 13.58Q20.22 13.29 20.51 13.08L20.51 13.08Q20.71 12.95 20.90 12.95L20.90 12.95Q21.25 12.95 21.48 13.24L21.48 13.24Q21.85 13.73 22.43 13.99Q23.00 14.25 23.73 14.25L23.73 14.25Q24.42 14.25 24.98 13.92Q25.54 13.59 25.87 12.96Q26.21 12.32 26.21 11.44L26.21 11.44L26.21 10.75Q25.77 11.52 25.06 11.96Q24.35 12.39 23.45 12.39L23.45 12.39Q22.41 12.39 21.60 11.89Q20.78 11.40 20.32 10.51Q19.87 9.63 19.87 8.51L19.87 8.51Q19.87 7.38 20.36 6.50Q20.85 5.61 21.73 5.12Q22.61 4.62 23.73 4.62L23.73 4.62ZM23.73 11.13Q24.44 11.13 25.01 10.79Q25.58 10.46 25.89 9.86Q26.21 9.27 26.21 8.51L26.21 8.51Q26.21 7.76 25.89 7.15Q25.58 6.55 25.01 6.22Q24.44 5.88 23.73 5.88L23.73 5.88Q23.02 5.88 22.45 6.22Q21.88 6.55 21.56 7.15Q21.24 7.76 21.24 8.51L21.24 8.51Q21.24 9.27 21.56 9.86Q21.88 10.46 22.45 10.79Q23.02 11.13 23.73 11.13L23.73 11.13ZM29.85 5.39Q29.85 5.07 30.05 4.87Q30.25 4.68 30.56 4.68L30.56 4.68Q30.88 4.68 31.08 4.87Q31.28 5.07 31.28 5.39L31.28 5.39L31.28 11.62Q31.28 11.93 31.08 12.13Q30.88 12.33 30.56 12.33L30.56 12.33Q30.25 12.33 30.05 12.13Q29.85 11.93 29.85 11.62L29.85 11.62L29.85 5.39ZM30.56 1.58Q30.94 1.58 31.21 1.85Q31.49 2.13 31.49 2.51L31.49 2.51Q31.49 2.88 31.21 3.16Q30.94 3.43 30.56 3.43L30.56 3.43Q30.18 3.43 29.91 3.16Q29.64 2.88 29.64 2.51L29.64 2.51Q29.64 2.13 29.91 1.85Q30.18 1.58 30.56 1.58L30.56 1.58ZM37.74 4.61Q38.71 4.61 39.48 5.03Q40.25 5.45 40.68 6.25Q41.12 7.06 41.12 8.19L41.12 8.19L41.12 11.63Q41.12 11.94 40.92 12.14Q40.71 12.35 40.40 12.35L40.40 12.35Q40.10 12.35 39.89 12.14Q39.69 11.94 39.69 11.63L39.69 11.63L39.69 8.19Q39.69 7.06 39.08 6.47Q38.47 5.89 37.46 5.89L37.46 5.89Q36.88 5.89 36.39 6.13Q35.91 6.37 35.64 6.78Q35.36 7.18 35.36 7.69L35.36 7.69L35.36 11.63Q35.36 11.94 35.17 12.14Q34.97 12.35 34.65 12.35L34.65 12.35Q34.34 12.35 34.14 12.14Q33.94 11.94 33.94 11.63L33.94 11.63L33.94 5.39Q33.94 5.07 34.14 4.87Q34.34 4.68 34.65 4.68L34.65 4.68Q34.97 4.68 35.17 4.87Q35.36 5.07 35.36 5.39L35.36 5.39L35.36 5.54Q35.81 5.10 36.43 4.85Q37.04 4.61 37.74 4.61L37.74 4.61ZM46.96 4.62Q48.03 4.62 48.91 5.13Q49.78 5.64 50.30 6.53Q50.81 7.42 50.81 8.51L50.81 8.51L50.81 11.63Q50.81 11.94 50.60 12.14Q50.40 12.35 50.09 12.35L50.09 12.35Q49.78 12.35 49.58 12.14Q49.38 11.94 49.38 11.63L49.38 11.63L49.38 11.12Q48.89 11.72 48.19 12.05Q47.49 12.39 46.68 12.39L46.68 12.39Q45.67 12.39 44.85 11.89Q44.03 11.38 43.56 10.49Q43.09 9.60 43.09 8.51L43.09 8.51Q43.09 7.42 43.60 6.53Q44.10 5.64 44.99 5.13Q45.88 4.62 46.96 4.62L46.96 4.62ZM46.96 11.13Q47.66 11.13 48.22 10.79Q48.79 10.44 49.11 9.85Q49.43 9.25 49.43 8.51L49.43 8.51Q49.43 7.77 49.11 7.17Q48.79 6.57 48.22 6.22Q47.66 5.88 46.96 5.88L46.96 5.88Q46.26 5.88 45.69 6.22Q45.12 6.57 44.79 7.17Q44.46 7.77 44.46 8.51L44.46 8.51Q44.46 9.25 44.79 9.85Q45.12 10.44 45.69 10.79Q46.26 11.13 46.96 11.13L46.96 11.13ZM58.79 4.75Q59.22 4.91 59.22 5.29L59.22 5.29Q59.22 5.43 59.14 5.63L59.14 5.63L54.85 15.26Q54.68 15.69 54.31 15.69L54.31 15.69Q54.17 15.69 53.97 15.61L53.97 15.61Q53.55 15.43 53.55 15.06L53.55 15.06Q53.55 14.90 53.63 14.73L53.63 14.73L55.03 11.58L51.88 5.60Q51.81 5.47 51.81 5.31L51.81 5.31Q51.81 5.12 51.93 4.97Q52.04 4.82 52.22 4.73L52.22 4.73Q52.35 4.68 52.50 4.68L52.50 4.68Q52.89 4.68 53.09 5.07L53.09 5.07L55.65 10.16L57.90 5.08Q58.09 4.68 58.45 4.68L58.45 4.68Q58.63 4.68 58.79 4.75L58.79 4.75Z"></path></g><!----><g data-v-423bf9ae="" id="ce71d442-75d3-48a1-8e9c-daf4a4c12d78" transform="matrix(1.4285714285714286,0,0,1.4285714285714286,-25.92857142857143,-25.92857142857143)" stroke="none" fill="white"><path d="M60 31.5c10.217 0 18.5 8.282 18.5 18.499 0 15.741-12.76 28.5-28.5 28.5C34.26 78.5 21.5 65.74 21.5 50c0-15.74 12.76-28.5 28.5-28.5a1.5 1.5 0 100-3c-17.397 0-31.5 14.103-31.5 31.5 0 17.396 14.103 31.5 31.5 31.5S81.5 67.396 81.5 50c0-11.873-9.626-21.5-21.5-21.5a1.5 1.5 0 000 3z"></path></g><!----></svg>